<svg xmlns="http://www.w3.org/2000/svg" width="200" height="200" viewBox="0 0 200 200" fill="none">
  <path d="M80 141H70V151H80V141Z" fill="#FF0000"/>
  <path d="M90 141H80V151H90V141Z" fill="#FF0000"/>
  <path d="M100 141H90V151H100V141Z" fill="#FF0000"/>
  <path d="M110 141H100V151H110V141Z" fill="#FF0000"/>
  <path d="M120 141H110V151H120V141Z" fill="#FF0000"/>
  <path d="M130 141H120V151H130V141Z" fill="#FF0000"/>
  <path d="M70 151H60V161H70V151Z" fill="#FF0000"/>
  <path d="M60 151H50V161H60V151Z" fill="#FF0000"/>
  <path d="M80 151H70V161H80V151Z" fill="#FF3333"/>
  <path d="M90 151H80V161H90V151Z" fill="#FF3333"/>
  <path d="M100 151H90V161H100V151Z" fill="#FF3333"/>
  <path d="M110 151H100V161H110V151Z" fill="#FF5555"/>
  <path d="M120 151H110V161H120V151Z" fill="#FF3333"/>
  <path d="M130 151H120V161H130V151Z" fill="#FF3333"/>
  <path d="M140 151H130V161H140V151Z" fill="#FF0000"/>
  <path d="M60 161H50V171H60V161Z" fill="#FF0000"/>
  <path d="M70 161H60V171H70V161Z" fill="#FF3333"/>
  <path d="M80 161H70V171H80V161Z" fill="#FF5555"/>
  <path d="M90 161H80V171H90V161Z" fill="#FF5555"/>
  <path d="M100 161H90V171H100V161Z" fill="#FF5555"/>
  <path d="M110 161H100V171H110V161Z" fill="#FF5555"/>
  <path d="M120 161H110V171H120V161Z" fill="#FF5555"/>
  <path d="M130 161H120V171H130V161Z" fill="#FF5555"/>
  <path d="M140 161H130V171H140V161Z" fill="#FF3333"/>
  <path d="M150 161H140V171H150V161Z" fill="#FF0000"/>
  <path d="M60 171H50V181H60V171Z" fill="#FF0000"/>
  <path d="M60 180H50V190H60V180Z" fill="#FF0000"/>
  <path d="M50 171H40V181H50V171Z" fill="#FF0000"/>
  <path d="M50 180H40V190H50V180Z" fill="#FF0000"/>
  <path d="M70 171H60V181H70V171Z" fill="#FF3333"/>
  <path d="M70 180H60V190H70V180Z" fill="#FF3333"/>
  <path d="M80 171H70V181H80V171Z" fill="#FF5555"/>
  <path d="M80 180H70V190H80V180Z" fill="#FF5555"/>
  <path d="M90 171H80V181H90V171Z" fill="#FF5555"/>
  <path d="M90 180H80V190H90V180Z" fill="#FF5555"/>
  <path d="M100 171H90V181H100V171Z" fill="#FF5555"/>
  <path d="M100 180H90V190H100V180Z" fill="#FF5555"/>
  <path d="M110 171H100V181H110V171Z" fill="#FF5555"/>
  <path d="M110 180H100V190H110V180Z" fill="#FF5555"/>
  <path d="M120 171H110V181H120V171Z" fill="#FF5555"/>
  <path d="M120 180H110V190H120V180Z" fill="#FF5555"/>
  <path d="M130 171H120V181H130V171Z" fill="#FF5555"/>
  <path d="M130 180H120V190H130V180Z" fill="#FF5555"/>
  <path d="M140 171H130V181H140V171Z" fill="#FF3333"/>
  <path d="M140 180H130V190H140V180Z" fill="#FF3333"/>
  <path d="M150 171H140V181H150V171Z" fill="#FF0000"/>
  <path d="M150 180H140V190H150V180Z" fill="#FF0000"/>
  <path d="M160 171H150V181H160V171Z" fill="#FF0000"/>
  <path d="M160 180H150V190H160V180Z" fill="#FF0000"/>
  <path d="M60 190H50V200H60V190Z" fill="#CC0000"/>
  <path d="M50 190H40V200H50V190Z" fill="#CC0000"/>
  <path d="M70 190H60V200H70V190Z" fill="#CC0000"/>
  <path d="M80 190H70V200H80V190Z" fill="#CC0000"/>
  <path d="M90 190H80V200H90V190Z" fill="#CC0000"/>
  <path d="M100 190H90V200H100V190Z" fill="#CC0000"/>
  <path d="M110 190H100V200H110V190Z" fill="#FF5555"/>
  <path d="M120 190H110V200H120V190Z" fill="#CC0000"/>
  <path d="M130 190H120V200H130V190Z" fill="#CC0000"/>
  <path d="M140 190H130V200H140V190Z" fill="#CC0000"/>
  <path d="M150 190H140V200H150V190Z" fill="#CC0000"/>
  <path d="M160 190H150V200H160V190Z" fill="#CC0000"/>
  <path d="M90 42H80V52H90V42Z" fill="#FF0000"/>
  <path d="M100 42H90V52H100V42Z" fill="#FF0000"/>
  <path d="M110 42H100V52H110V42Z" fill="#FF0000"/>
  <path d="M120 42H110V52H120V42Z" fill="#FF0000"/>
  <path d="M80 52H70V62H80V52Z" fill="#FF0000"/>
  <path d="M90 52H80V62H90V52Z" fill="#FF0000"/>
  <path d="M100 52H90V62H100V52Z" fill="#FF3333"/>
  <path d="M110 52H100V62H110V52Z" fill="#FF3333"/>
  <path d="M120 52H110V62H120V52Z" fill="#FF0000"/>
  <path d="M130 52H120V62H130V52Z" fill="#FF0000"/>
  <path d="M70 62H60V72H70V62Z" fill="#FF0000"/>
  <path d="M80 62H70V72H80V62Z" fill="#FF3333"/>
  <path d="M90 62H80V72H90V62Z" fill="#FF3333"/>
  <path d="M100 62H90V72H100V62Z" fill="#FF5555"/>
  <path d="M110 62H100V72H110V62Z" fill="#FF5555"/>
  <path d="M120 62H110V72H120V62Z" fill="#FF3333"/>
  <path d="M130 62H120V72H130V62Z" fill="#FF3333"/>
  <path d="M140 62H130V72H140V62Z" fill="#FF0000"/>
  <path d="M70 72H60V82H70V72Z" fill="#FF0000"/>
  <path d="M80 72H70V82H80V72Z" fill="#FF3333"/>
  <path d="M90 72H80V82H90V72Z" fill="#FF5555"/>
  <path d="M100 72H90V82H100V72Z" fill="#FF5555"/>
  <path d="M110 72H100V82H110V72Z" fill="#FF5555"/>
  <path d="M120 72H110V82H120V72Z" fill="#FF5555"/>
  <path d="M130 72H120V82H130V72Z" fill="#FF3333"/>
  <path d="M140 72H130V82H140V72Z" fill="#FF0000"/>
  <path d="M70 82H60V92H70V82Z" fill="#CC0000"/>
  <path d="M80 82H70V92H80V82Z" fill="#CC0000"/>
  <path d="M90 82H80V92H90V82Z" fill="#CC0000"/>
  <path d="M100 82H90V92H100V82Z" fill="#CC0000"/>
  <path d="M110 82H100V92H110V82Z" fill="#CC0000"/>
  <path d="M120 82H110V92H120V82Z" fill="#CC0000"/>
  <path d="M130 82H120V92H130V82Z" fill="#CC0000"/>
  <path d="M140 82H130V92H140V82Z" fill="#CC0000"/>
  <path d="M70 92H60V102H70V92Z" fill="#FF0000"/>
  <path d="M80 92H70V102H80V92Z" fill="#FF3333"/>
  <path d="M90 92H80V102H90V92Z" fill="#FF5555"/>
  <path d="M100 92H90V102H100V92Z" fill="#FF5555"/>
  <path d="M110 92H100V102H110V92Z" fill="#FF5555"/>
  <path d="M120 92H110V102H120V92Z" fill="#FF5555"/>
  <path d="M130 92H120V102H130V92Z" fill="#FF3333"/>
  <path d="M140 92H130V102H140V92Z" fill="#FF0000"/>
  <path d="M80 102H70V112H80V102Z" fill="#FF0000"/>
  <path d="M90 102H80V112H90V102Z" fill="#FF0000"/>
  <path d="M100 102H90V112H100V102Z" fill="#FF3333"/>
  <path d="M110 102H100V112H110V102Z" fill="#FF3333"/>
  <path d="M120 102H110V112H120V102Z" fill="#FF0000"/>
  <path d="M130 102H120V112H130V102Z" fill="#FF0000"/>
  <path d="M90 112H80V122H90V112Z" fill="#FF0000"/>
  <path d="M100 112H90V122H100V112Z" fill="#FF0000"/>
  <path d="M110 112H100V122H110V112Z" fill="#FF0000"/>
  <path d="M120 112H110V122H120V112Z" fill="#FF0000"/>
</svg>